<svg width="20" height="20" viewBox="0 0 20 20" fill="none" xmlns="http://www.w3.org/2000/svg">
<g clip-path="url(#clip0_2635_551)">
<path d="M10 0.5C15.2465 0.5 19.5 4.75349 19.5 10C19.5 15.2465 15.2465 19.5 10 19.5C4.75349 19.5 0.5 15.2465 0.5 10C0.5 4.75349 4.75349 0.5 10 0.5ZM9.81543 4.03125C9.55939 4.03127 9.30589 4.08328 9.07031 4.18359C8.83473 4.28391 8.62179 4.43065 8.44434 4.61523C8.2669 4.79981 8.12807 5.01849 8.03711 5.25781C7.94626 5.49701 7.905 5.75214 7.91504 6.00781L8.09961 10.6738C8.11918 11.1647 8.32837 11.6293 8.68262 11.9697C8.84336 12.1241 9.02943 12.2452 9.22949 12.334C9.01838 12.4277 8.82376 12.5591 8.65723 12.7256C8.30098 13.0818 8.10059 13.5655 8.10059 14.0693C8.10064 14.5731 8.30103 15.0559 8.65723 15.4121C9.01346 15.7683 9.49624 15.9688 10 15.9688C10.5038 15.9688 10.9865 15.7683 11.3428 15.4121C11.699 15.0559 11.8994 14.5731 11.8994 14.0693C11.8994 13.5655 11.699 13.0818 11.3428 12.7256C11.176 12.5589 10.981 12.4277 10.7695 12.334C10.9699 12.2452 11.1564 12.1243 11.3174 11.9697C11.6716 11.6293 11.8808 11.1647 11.9004 10.6738L12.085 6.00781C12.095 5.75214 12.0537 5.49701 11.9629 5.25781C11.8719 5.01849 11.7331 4.79981 11.5557 4.61523C11.3782 4.43065 11.1653 4.28391 10.9297 4.18359C10.6941 4.08328 10.4406 4.03127 10.1846 4.03125H9.81543Z" fill="#46BC8A" stroke="#46BC8A"/>
</g>
<defs>
<clipPath id="clip0_2635_551">
<rect width="20" height="20" fill="white"/>
</clipPath>
</defs>
</svg>
