<?xml version="1.0" ?>
<!-- Uploaded to: SVG Repo, www.svgrepo.com, Generator: SVG Repo Mixer Tools -->
<svg width="800px" height="800px" viewBox="0 0 64 64" xmlns="http://www.w3.org/2000/svg">
<defs>
<style>.cls-1{fill:#ffd15c;}.cls-2{fill:#eb3a5c;}.cls-3{fill:#eff3fe;}.cls-4{fill:#d51d48;}.cls-5{fill:#f8b64c;}</style>
</defs>
<g id="main">
<path class="cls-1" d="M56,24V60a3,3,0,0,1-3,3H11a3,3,0,0,1-3-3V24a1,1,0,0,1,1-1H55A1,1,0,0,1,56,24Z"/>
<path class="cls-2" d="M39,24V63H25V24a1,1,0,0,1,1-1H38a.9.9,0,0,1,.46.12A1,1,0,0,1,39,24Z"/>
<path class="cls-3" d="M39,24v1.42l-14,14V36.58L38.46,23.12A1,1,0,0,1,39,24Z"/>
<path class="cls-4" d="M46.6,7.2l-8-6A1,1,0,0,0,37.74,1a1,1,0,0,0-.66.58l-6,14a1,1,0,0,0,.25,1.14A1,1,0,0,0,32,17a1,1,0,0,0,.5-.13l14-8a1,1,0,0,0,.1-1.67Z"/>
<path class="cls-2" d="M32.85,15.47l-5-8a1,1,0,0,0-1.47-.25l-5,4a1,1,0,0,0,.25,1.71l10,4A1,1,0,0,0,32,17a1,1,0,0,0,.77-.36A1,1,0,0,0,32.85,15.47Z"/>
<path class="cls-5" d="M54,15H10a5,5,0,0,0,0,10H54a5,5,0,0,0,0-10Z"/>
<polygon class="cls-3" points="39 32.59 39 35.41 25 49.41 25 46.59 39 32.59"/>
<polygon class="cls-3" points="39 42.59 39 45.41 25 59.41 25 56.59 39 42.59"/>
</g>
</svg>