<svg width="40" height="40" viewBox="0 0 40 40" fill="none" xmlns="http://www.w3.org/2000/svg">
<rect width="40" height="40" rx="4" fill="#F5FBF9"/>
<mask id="path-2-inside-1_2635_824" fill="white">
<path d="M23.7531 24.9463C24.0138 25.3744 24.0919 25.8776 23.9731 26.3644C23.855 26.8507 23.5538 27.2626 23.1256 27.5232L21.5731 28.4682C21.275 28.6494 20.9406 28.7407 20.6038 28.7407C20.3013 28.7407 19.9963 28.6676 19.7131 28.5201C16.4531 26.8294 14.5919 24.3188 13.7725 22.9732C11.9569 19.9907 11.5756 17.0519 11.575 15.1126C11.575 14.4588 11.9113 13.8626 12.475 13.5188L14.0281 12.5738C14.4556 12.3132 14.9588 12.2351 15.4463 12.3538C15.9325 12.4719 16.3444 12.7726 16.6044 13.2007L17.5794 14.8019C18.1169 15.6857 17.8356 16.8413 16.9525 17.3788L16.1481 17.8682C15.9069 18.0151 15.7894 18.3101 15.87 18.5688C16.1356 19.4282 16.5081 20.2538 16.9763 21.0232C17.4431 21.7901 18.005 22.4988 18.645 23.1301C18.8431 23.3251 19.1525 23.3569 19.3981 23.2076L20.2019 22.7182C21.0838 22.1794 22.2406 22.4613 22.7788 23.3444L23.7538 24.9463H23.7531ZM20.0556 17.4338C21.4181 17.6438 22.355 18.9238 22.145 20.2857C22.0925 20.6269 22.3263 20.9463 22.6675 20.9988C22.7 21.0038 22.7319 21.0063 22.7638 21.0063C23.0669 21.0063 23.3331 20.7851 23.3806 20.4763C23.6956 18.4326 22.29 16.5138 20.2469 16.1982C19.9063 16.1469 19.5863 16.3794 19.5338 16.7201C19.4813 17.0613 19.715 17.3807 20.0556 17.4332V17.4338ZM20.6275 13.7276C20.2894 13.6751 19.9669 13.9088 19.9144 14.2501C19.8619 14.5907 20.0956 14.9101 20.4369 14.9632C21.7569 15.1669 22.9181 15.8726 23.7075 16.9501C24.4969 18.0276 24.8194 19.3476 24.6156 20.6676C24.5631 21.0082 24.7969 21.3276 25.1381 21.3807C25.17 21.3857 25.2025 21.3882 25.2344 21.3882C25.5375 21.3882 25.8038 21.1669 25.8513 20.8582C26.1063 19.2082 25.7031 17.5582 24.7163 16.2113C23.7294 14.8644 22.2775 13.9826 20.6275 13.7276ZM21.0088 11.2569C20.6688 11.2063 20.3481 11.4382 20.2956 11.7794C20.2431 12.1201 20.4769 12.4394 20.8181 12.4926C24.905 13.1232 27.7169 16.9613 27.0863 21.0488C27.0338 21.3894 27.2675 21.7088 27.6088 21.7619C27.6406 21.7669 27.6731 21.7694 27.705 21.7694C28.0081 21.7694 28.2744 21.5482 28.3219 21.2394C29.0581 16.4713 25.7775 11.9938 21.0088 11.2576V11.2569Z"/>
</mask>
<path d="M23.7531 24.9463C24.0138 25.3744 24.0919 25.8776 23.9731 26.3644C23.855 26.8507 23.5538 27.2626 23.1256 27.5232L21.5731 28.4682C21.275 28.6494 20.9406 28.7407 20.6038 28.7407C20.3013 28.7407 19.9963 28.6676 19.7131 28.5201C16.4531 26.8294 14.5919 24.3188 13.7725 22.9732C11.9569 19.9907 11.5756 17.0519 11.575 15.1126C11.575 14.4588 11.9113 13.8626 12.475 13.5188L14.0281 12.5738C14.4556 12.3132 14.9588 12.2351 15.4463 12.3538C15.9325 12.4719 16.3444 12.7726 16.6044 13.2007L17.5794 14.8019C18.1169 15.6857 17.8356 16.8413 16.9525 17.3788L16.1481 17.8682C15.9069 18.0151 15.7894 18.3101 15.87 18.5688C16.1356 19.4282 16.5081 20.2538 16.9763 21.0232C17.4431 21.7901 18.005 22.4988 18.645 23.1301C18.8431 23.3251 19.1525 23.3569 19.3981 23.2076L20.2019 22.7182C21.0838 22.1794 22.2406 22.4613 22.7788 23.3444L23.7538 24.9463H23.7531ZM20.0556 17.4338C21.4181 17.6438 22.355 18.9238 22.145 20.2857C22.0925 20.6269 22.3263 20.9463 22.6675 20.9988C22.7 21.0038 22.7319 21.0063 22.7638 21.0063C23.0669 21.0063 23.3331 20.7851 23.3806 20.4763C23.6956 18.4326 22.29 16.5138 20.2469 16.1982C19.9063 16.1469 19.5863 16.3794 19.5338 16.7201C19.4813 17.0613 19.715 17.3807 20.0556 17.4332V17.4338ZM20.6275 13.7276C20.2894 13.6751 19.9669 13.9088 19.9144 14.2501C19.8619 14.5907 20.0956 14.9101 20.4369 14.9632C21.7569 15.1669 22.9181 15.8726 23.7075 16.9501C24.4969 18.0276 24.8194 19.3476 24.6156 20.6676C24.5631 21.0082 24.7969 21.3276 25.1381 21.3807C25.17 21.3857 25.2025 21.3882 25.2344 21.3882C25.5375 21.3882 25.8038 21.1669 25.8513 20.8582C26.1063 19.2082 25.7031 17.5582 24.7163 16.2113C23.7294 14.8644 22.2775 13.9826 20.6275 13.7276ZM21.0088 11.2569C20.6688 11.2063 20.3481 11.4382 20.2956 11.7794C20.2431 12.1201 20.4769 12.4394 20.8181 12.4926C24.905 13.1232 27.7169 16.9613 27.0863 21.0488C27.0338 21.3894 27.2675 21.7088 27.6088 21.7619C27.6406 21.7669 27.6731 21.7694 27.705 21.7694C28.0081 21.7694 28.2744 21.5482 28.3219 21.2394C29.0581 16.4713 25.7775 11.9938 21.0088 11.2576V11.2569Z" fill="#46BC8A"/>
<path d="M23.7531 24.9463V8.94631H-4.71854L10.0863 33.2661L23.7531 24.9463ZM23.9731 26.3644L8.42881 22.5731L8.42707 22.5803L8.42534 22.5874L23.9731 26.3644ZM23.1256 27.5232L31.4448 41.1904L31.4454 41.19L23.1256 27.5232ZM21.5731 28.4682L29.885 42.1398L29.8923 42.1354L21.5731 28.4682ZM19.7131 28.5201L27.1056 14.3302L27.0924 14.3233L27.0791 14.3164L19.7131 28.5201ZM13.7725 22.9732L0.105722 31.293L0.106683 31.2945L13.7725 22.9732ZM11.575 15.1126H-4.42499L-4.42499 15.1177L11.575 15.1126ZM12.475 13.5188L4.1583 -0.149854L4.1518 -0.145895L4.14529 -0.141929L12.475 13.5188ZM14.0281 12.5738L22.3448 26.2425L22.3568 26.2352L14.0281 12.5738ZM15.4463 12.3538L11.6596 27.8993L11.6692 27.9016L15.4463 12.3538ZM16.6044 13.2007L2.92874 21.5059L2.93359 21.5139L2.93845 21.5219L16.6044 13.2007ZM17.5794 14.8019L31.2496 6.48769L31.2453 6.48076L17.5794 14.8019ZM16.9525 17.3788L25.2686 31.0478L25.2711 31.0464L16.9525 17.3788ZM16.1481 17.8682L7.83202 4.19916L7.82786 4.20169L16.1481 17.8682ZM15.87 18.5688L31.1565 13.8439L31.1511 13.8265L31.1456 13.809L15.87 18.5688ZM16.9763 21.0232L3.30758 29.3399L3.30973 29.3434L16.9763 21.0232ZM18.645 23.1301L7.40944 34.5214L7.41551 34.5274L7.42159 34.5333L18.645 23.1301ZM19.3981 23.2076L27.7118 36.8781L27.719 36.8737L19.3981 23.2076ZM20.2019 22.7182L28.5227 36.3843L28.5329 36.3781L28.5431 36.3719L20.2019 22.7182ZM22.7788 23.3444L36.4461 15.0256L36.442 15.0188L22.7788 23.3444ZM23.7538 24.9463V40.9463H52.2231L37.4211 16.6275L23.7538 24.9463ZM20.0556 17.4338H4.05564V31.1567L17.6184 33.2471L20.0556 17.4338ZM22.145 20.2857L6.3319 17.8473L6.33106 17.8528L22.145 20.2857ZM22.6675 20.9988L25.1004 5.18486L22.6675 20.9988ZM23.3806 20.4763L7.56736 18.039L7.56669 18.0434L23.3806 20.4763ZM20.2469 16.1982L22.6896 0.38575L22.6585 0.380948L22.6274 0.376269L20.2469 16.1982ZM19.5338 16.7201L3.72049 14.2828L3.71981 14.2871L19.5338 16.7201ZM20.0556 17.4332H36.0556V3.71031L22.4929 1.61991L20.0556 17.4332ZM20.6275 13.7276L18.1726 29.5381L18.1838 29.5398L20.6275 13.7276ZM19.9144 14.2501L35.7277 16.6873L35.7283 16.683L19.9144 14.2501ZM20.4369 14.9632L17.9757 30.7728L17.9859 30.7743L17.9961 30.7759L20.4369 14.9632ZM24.6156 20.6676L8.8029 18.2268L8.80236 18.2303L24.6156 20.6676ZM25.1381 21.3807L27.6176 5.57397L27.6085 5.57254L27.5993 5.57112L25.1381 21.3807ZM25.8513 20.8582L10.039 18.4145L10.0373 18.4253L25.8513 20.8582ZM21.0088 11.2569H37.0088V-2.5371L23.3651 -4.5686L21.0088 11.2569ZM20.2956 11.7794L36.1089 14.2167L36.1096 14.2123L20.2956 11.7794ZM20.8181 12.4926L18.3569 28.3021L18.3675 28.3038L18.3781 28.3054L20.8181 12.4926ZM27.0863 21.0488L11.2733 18.6092L11.273 18.6115L27.0863 21.0488ZM27.6088 21.7619L30.0882 5.95522L30.0791 5.95379L30.07 5.95237L27.6088 21.7619ZM28.3219 21.2394L12.5093 18.7978L12.5079 18.8065L28.3219 21.2394ZM21.0088 11.2576H5.00876V24.9769L18.5674 27.0702L21.0088 11.2576ZM10.0863 33.2661C8.14022 30.0692 7.54038 26.2157 8.42881 22.5731L39.5175 30.1557C40.6434 25.5394 39.8873 20.6796 37.4199 16.6265L10.0863 33.2661ZM8.42534 22.5874C9.31119 18.9409 11.6151 15.7988 14.8059 13.8564L31.4454 41.19C35.4925 38.7263 38.3988 34.7605 39.5209 30.1415L8.42534 22.5874ZM14.8065 13.856L13.254 14.801L29.8923 42.1354L31.4448 41.1904L14.8065 13.856ZM13.2613 14.7966C15.4879 13.4429 18.0322 12.7407 20.6038 12.7407V44.7407C23.8491 44.7407 27.0622 43.856 29.885 42.1398L13.2613 14.7966ZM20.6038 12.7407C22.8921 12.7407 25.1212 13.2964 27.1056 14.3302L12.3206 42.7099C14.8714 44.0387 17.7104 44.7407 20.6038 44.7407V12.7407ZM27.0791 14.3164C27.2255 14.3924 27.3029 14.4675 27.3222 14.4873C27.3331 14.4987 27.3429 14.51 27.3554 14.5265C27.3679 14.5432 27.3949 14.5805 27.4383 14.6518L0.106683 31.2945C1.8159 34.1015 5.58752 39.2181 12.3472 42.7237L27.0791 14.3164ZM27.4393 14.6534C27.4973 14.7486 27.5363 14.8546 27.5556 14.9356C27.5706 14.9985 27.575 15.0477 27.575 15.1074L-4.42499 15.1177C-4.42372 19.0616 -3.65475 25.1157 0.105722 31.293L27.4393 14.6534ZM27.575 15.1126C27.575 20.0942 24.9568 24.6478 20.8047 27.1795L4.14529 -0.141929C-1.13429 3.07733 -4.42499 8.82344 -4.42499 15.1126H27.575ZM20.7917 27.1875L22.3448 26.2425L5.71143 -1.09485L4.1583 -0.149854L20.7917 27.1875ZM22.3568 26.2352C19.1497 28.1904 15.2931 28.7843 11.6596 27.8993L19.233 -3.19163C14.6244 -4.31422 9.76154 -3.56401 5.69948 -1.08758L22.3568 26.2352ZM11.6692 27.9016C8.03636 27.0191 4.88133 24.7211 2.92874 21.5059L30.28 4.89547C27.8074 0.824009 23.8287 -2.0752 19.2233 -3.19399L11.6692 27.9016ZM2.93845 21.5219L3.91344 23.1231L31.2453 6.48076L30.2703 4.87951L2.93845 21.5219ZM3.90922 23.1162C-0.141791 16.4556 1.96663 7.76924 8.63397 3.71126L25.2711 31.0464C33.7046 25.9134 36.3756 14.9158 31.2495 6.48769L3.90922 23.1162ZM8.63639 3.70979L7.83202 4.19916L24.4643 31.5372L25.2686 31.0478L8.63639 3.70979ZM7.82786 4.20169C1.71899 7.92083 -1.80838 15.6174 0.594398 23.3286L31.1456 13.809C33.3871 21.0027 30.0948 28.1093 24.4684 31.5347L7.82786 4.20169ZM0.58357 23.2937C1.24072 25.4198 2.15833 27.451 3.30758 29.3399L30.6449 12.7065C30.8579 13.0566 31.0306 13.4366 31.1565 13.8439L0.58357 23.2937ZM3.30973 29.3434C4.46269 31.2372 5.84272 32.9761 7.40944 34.5214L29.8806 11.7387C30.1673 12.0216 30.4236 12.3429 30.6428 12.703L3.30973 29.3434ZM7.42159 34.5333C13.0914 40.1138 21.505 40.6527 27.7118 36.8781L11.0845 9.53703C16.8 6.0612 24.5948 6.53636 29.8684 11.7268L7.42159 34.5333ZM27.719 36.8737L28.5227 36.3843L11.8811 9.05203L11.0773 9.54141L27.719 36.8737ZM28.5431 36.3719C21.8518 40.4597 13.1631 38.3126 9.11551 31.67L36.442 15.0188C31.3181 6.60997 20.3157 3.89917 11.8606 9.06448L28.5431 36.3719ZM9.11138 31.6633L10.0864 33.2651L37.4211 16.6275L36.4461 15.0256L9.11138 31.6633ZM23.7538 8.94631H23.7531V40.9463H23.7538V8.94631ZM17.6184 33.2471C10.2384 32.1096 5.19649 25.2106 6.3319 17.8473L37.9581 22.7241C39.5135 12.637 32.5978 3.17799 22.4929 1.62053L17.6184 33.2471ZM6.33106 17.8528C4.93755 26.9106 11.1424 35.4139 20.2346 36.8128L25.1004 5.18486C33.5102 6.47867 39.2475 14.3432 37.959 22.7186L6.33106 17.8528ZM20.2346 36.8128C21.0385 36.9364 21.884 37.0063 22.7638 37.0063V5.00631C23.5798 5.00631 24.3615 5.07119 25.1004 5.18486L20.2346 36.8128ZM22.7638 37.0063C30.846 37.0063 37.9284 31.1393 39.1946 22.9092L7.56669 18.0434C8.73786 10.4308 15.2877 5.00631 22.7638 5.00631V37.0063ZM39.1939 22.9136C40.8543 12.1408 33.4659 2.05048 22.6896 0.38575L17.8042 32.0106C11.1142 30.9771 6.53697 24.7243 7.56736 18.039L39.1939 22.9136ZM22.6274 0.376269C13.6772 -0.970377 5.13198 5.1249 3.72049 14.2828L35.347 19.1573C34.0405 27.634 26.1354 33.2642 17.8663 32.0201L22.6274 0.376269ZM3.71981 14.2871C2.32774 23.3356 8.52119 31.8443 17.6184 33.2465L22.4929 1.61991C30.9088 2.91704 36.6348 10.787 35.3477 19.153L3.71981 14.2871ZM4.05564 17.4332V17.4338H36.0556V17.4332H4.05564ZM23.0824 -2.08299C14.0432 -3.48648 5.50399 2.69407 4.10044 11.8171L35.7283 16.683C34.4298 25.1235 26.5355 30.8366 18.1726 29.5381L23.0824 -2.08299ZM4.10111 11.8128C2.7019 20.891 8.92591 29.3639 17.9757 30.7728L22.8981 -0.846386C31.2654 0.456213 37.0219 8.29036 35.7277 16.6873L4.10111 11.8128ZM17.9961 30.7759C15.1201 30.332 12.5175 28.7494 10.8005 26.4057L36.6145 7.49441C33.3188 2.99575 28.3937 0.0018816 22.8777 -0.849549L17.9961 30.7759ZM10.8005 26.4057C9.08255 24.0607 8.35916 21.1016 8.8029 18.2268L40.4284 23.1084C41.2796 17.5936 39.9112 11.9944 36.6145 7.49441L10.8005 26.4057ZM8.80236 18.2303C7.40314 27.3086 13.6272 35.7814 22.6769 37.1903L27.5993 5.57112C35.9666 6.87371 41.7231 14.7078 40.4289 23.1048L8.80236 18.2303ZM22.6587 37.1874C23.5165 37.322 24.3781 37.3882 25.2344 37.3882V5.38819C26.0269 5.38819 26.8235 5.44941 27.6176 5.57397L22.6587 37.1874ZM25.2344 37.3882C33.3167 37.3882 40.399 31.5212 41.6652 23.2911L10.0373 18.4253C11.2085 10.8127 17.7583 5.38819 25.2344 5.38819V37.3882ZM41.6635 23.3019C42.5671 17.4551 41.1174 11.5245 37.6225 6.75468L11.81 25.6679C10.2888 23.5919 9.64538 20.9613 10.039 18.4145L41.6635 23.3019ZM37.6225 6.75468C34.1283 1.98582 28.913 -1.1819 23.0712 -2.08472L18.1838 29.5398C15.642 29.147 13.3304 27.7431 11.81 25.6679L37.6225 6.75468ZM23.3651 -4.5686C14.4568 -5.89503 5.89497 0.160185 4.48169 9.34652L36.1096 14.2123C34.8013 22.7162 26.8808 28.3076 18.6524 27.0825L23.3651 -4.5686ZM4.48236 9.34216C3.08314 18.4204 9.3072 26.8933 18.3569 28.3021L23.2793 -3.31701C31.6466 -2.01442 37.4031 5.81969 36.1089 14.2167L4.48236 9.34216ZM18.3781 28.3054C13.7306 27.5883 10.5568 23.2534 11.2733 18.6092L42.8992 23.4884C44.8769 10.6693 36.0795 -1.3419 23.2581 -3.3203L18.3781 28.3054ZM11.273 18.6115C9.87377 27.6898 16.0978 36.1627 25.1476 37.5715L30.07 5.95237C38.4372 7.25496 44.1938 15.0891 42.8995 23.4861L11.273 18.6115ZM25.1293 37.5686C25.9875 37.7033 26.8491 37.7694 27.705 37.7694V5.76944C28.4972 5.76944 29.2938 5.8306 30.0882 5.95522L25.1293 37.5686ZM27.705 37.7694C35.7872 37.7694 42.8697 31.9025 44.1358 23.6723L12.5079 18.8065C13.6791 11.1938 20.2291 5.76944 27.705 5.76944V37.7694ZM44.1345 23.6811C46.2197 10.1767 36.949 -2.47098 23.4501 -4.55509L18.5674 27.0702C14.606 26.4586 11.8966 22.7659 12.5093 18.7978L44.1345 23.6811ZM37.0088 11.2576V11.2569H5.00876V11.2576H37.0088Z" fill="#46BC8A" mask="url(#path-2-inside-1_2635_824)"/>
</svg>
