<svg width="20" height="20" viewBox="0 0 20 20" fill="none" xmlns="http://www.w3.org/2000/svg">
<g clip-path="url(#clip0_2635_487)">
<path d="M18.6374 6.03625C19.1881 7.245 19.4997 8.5848 19.4997 10.0001C19.4997 11.4151 19.1873 12.7539 18.6354 13.9611C17.4171 13.448 16.1561 13.0542 14.8727 12.7706C15.1997 10.9398 15.1998 9.06529 14.8737 7.23352C16.158 6.9482 17.4154 6.55178 18.6374 6.03625Z" fill="#46BC8A" stroke="#46BC8A"/>
<path d="M7.26999 14.1862C7.82249 15.945 8.73374 17.6112 9.99874 19.0837C11.2637 17.6112 12.1762 15.945 12.7275 14.1862C10.9162 13.9462 9.08124 13.9475 7.26999 14.1862Z" fill="#46BC8A"/>
<path d="M13.0525 7.04248C12.0475 7.18373 11.0325 7.27998 9.99999 7.27998C8.96624 7.27998 7.95124 7.18248 6.94624 7.04248C6.52499 8.99498 6.52499 11.015 6.94874 12.9675C8.97249 12.6862 11.0262 12.6862 13.05 12.9675C13.4737 11.015 13.475 8.99498 13.0525 7.04248Z" fill="#46BC8A"/>
<path d="M9.99874 0.91626C8.73374 2.38876 7.82249 4.05501 7.26999 5.81501C9.08124 6.05376 10.9175 6.05376 12.7275 5.81501C12.175 4.05626 11.2637 2.38876 9.99874 0.91626Z" fill="#46BC8A"/>
<path d="M10.8612 0C12.3287 1.68 13.3737 3.59625 13.9812 5.62C15.4387 5.335 16.8662 4.90125 18.2287 4.3C16.5787 1.90125 13.9162 0.2625 10.8612 0Z" fill="#46BC8A"/>
<path d="M1.76999 4.3C3.13374 4.9 4.56124 5.335 6.01749 5.62C6.62499 3.59625 7.66999 1.68 9.13749 0C6.08249 0.2625 3.42124 1.90125 1.76999 4.3Z" fill="#46BC8A"/>
<path d="M5.70875 6.84877C4.15625 6.53752 2.64375 6.06751 1.1875 5.41876L1.1225 5.39001C0.40875 6.77126 0 8.33626 0 10C0 11.6638 0.40875 13.2288 1.1225 14.6113L1.1875 14.5825C2.6375 13.935 4.15875 13.4675 5.71125 13.16C5.27 11.08 5.27 8.93002 5.70875 6.84877Z" fill="#46BC8A"/>
<path d="M6.01749 14.3812C4.55999 14.665 3.13249 15.1 1.76999 15.7C3.42124 18.0987 6.08249 19.7375 9.13749 20C7.66999 18.32 6.62499 16.4037 6.01749 14.3812Z" fill="#46BC8A"/>
<path d="M13.9812 14.38C13.375 16.4038 12.3287 18.32 10.8612 20C13.9162 19.7375 16.5787 18.0988 18.2287 15.7C16.8662 15.0988 15.4387 14.665 13.9812 14.38Z" fill="#46BC8A"/>
</g>
<defs>
<clipPath id="clip0_2635_487">
<rect width="20" height="20" fill="white"/>
</clipPath>
</defs>
</svg>
