<svg width="40" height="40" viewBox="0 0 40 40" fill="none" xmlns="http://www.w3.org/2000/svg">
<rect width="40" height="40" rx="4" fill="#F5FBF9"/>
<path d="M20 10.5C22.6316 10.5 24.7734 12.6418 24.7734 15.2734C24.7734 17.9051 22.6316 20.0469 20 20.0469C17.3684 20.0469 15.2266 17.9051 15.2266 15.2734C15.2266 12.6418 17.3684 10.5 20 10.5Z" fill="#46BC8A" stroke="#46BC8A"/>
<path d="M26.5612 23.992C25.1174 22.5261 23.2035 21.7188 21.1719 21.7188H18.8281C16.7966 21.7188 14.8826 22.5261 13.4388 23.992C12.0021 25.4507 11.2109 27.3763 11.2109 29.4141C11.2109 29.7377 11.4733 30 11.7969 30H28.2031C28.5267 30 28.7891 29.7377 28.7891 29.4141C28.7891 27.3763 27.9979 25.4507 26.5612 23.992Z" fill="#46BC8A"/>
</svg>
