<svg width="52" height="48" viewBox="0 0 52 48" fill="none" xmlns="http://www.w3.org/2000/svg">
<path d="M0 0H48C50.2091 0 52 1.79086 52 4V44C52 46.2091 50.2091 48 48 48H0V0Z" fill="#46BC8A"/>
<g clip-path="url(#clip0_1_1090)">
<path d="M16.625 17.5258H26.1408C26.4276 18.8312 27.5934 19.8113 28.9837 19.8113C30.374 19.8113 31.5398 18.8313 31.8266 17.5258H35.375C35.7202 17.5258 36 17.2459 36 16.9008C36 16.5556 35.7202 16.2758 35.375 16.2758H31.8263C31.5389 14.971 30.3716 13.9904 28.9837 13.9904C27.5951 13.9904 26.4283 14.9709 26.1411 16.2758H16.625C16.2798 16.2758 16 16.5556 16 16.9008C16 17.2459 16.2798 17.5258 16.625 17.5258ZM27.3233 16.9024C27.3233 16.9002 27.3234 16.8979 27.3234 16.8957C27.3261 15.9829 28.0709 15.2404 28.9837 15.2404C29.8952 15.2404 30.6401 15.9819 30.644 16.8943L30.6441 16.9034C30.6427 17.8178 29.8984 18.5613 28.9837 18.5613C28.0694 18.5613 27.3254 17.8185 27.3233 16.9047L27.3233 16.9024ZM35.375 30.4743H31.8263C31.5389 29.1695 30.3716 28.1888 28.9837 28.1888C27.5951 28.1888 26.4283 29.1694 26.1411 30.4743H16.625C16.2798 30.4743 16 30.7541 16 31.0993C16 31.4445 16.2798 31.7243 16.625 31.7243H26.1408C26.4276 33.0297 27.5934 34.0097 28.9837 34.0097C30.374 34.0097 31.5398 33.0297 31.8266 31.7243H35.375C35.7202 31.7243 36 31.4445 36 31.0993C36 30.7541 35.7202 30.4743 35.375 30.4743ZM28.9837 32.7597C28.0694 32.7597 27.3254 32.017 27.3233 31.1032L27.3233 31.1009C27.3233 31.0986 27.3234 31.0964 27.3234 31.0942C27.3261 30.1814 28.0709 29.4388 28.9837 29.4388C29.8952 29.4388 30.6401 30.1804 30.644 31.0927L30.6441 31.1018C30.6428 32.0163 29.8985 32.7597 28.9837 32.7597ZM35.375 23.375H25.8592C25.5724 22.0696 24.4066 21.0896 23.0163 21.0896C21.626 21.0896 20.4602 22.0696 20.1734 23.375H16.625C16.2798 23.375 16 23.6549 16 24C16 24.3452 16.2798 24.625 16.625 24.625H20.1737C20.4611 25.9298 21.6284 26.9105 23.0163 26.9105C24.4049 26.9105 25.5717 25.9299 25.8589 24.625H35.375C35.7202 24.625 36 24.3452 36 24C36 23.6549 35.7202 23.375 35.375 23.375ZM24.6767 23.9984C24.6767 24.0007 24.6766 24.0029 24.6766 24.0051C24.6739 24.9179 23.9291 25.6604 23.0163 25.6604C22.1048 25.6604 21.3599 24.9189 21.356 24.0066L21.3559 23.9975C21.3572 23.083 22.1016 22.3396 23.0163 22.3396C23.9306 22.3396 24.6746 23.0823 24.6767 23.9962L24.6767 23.9984Z" fill="white"/>
</g>
<defs>
<clipPath id="clip0_1_1090">
<rect width="20" height="20" fill="white" transform="translate(16 14)"/>
</clipPath>
</defs>
</svg>
