<svg width="20" height="20" viewBox="0 0 20 20" fill="none" xmlns="http://www.w3.org/2000/svg">
<g clip-path="url(#clip0_21_4317)">
<path d="M12.4999 10.8335C12.0391 10.8335 11.6666 11.2069 11.6666 11.6667V15.0001C11.6666 15.4593 11.2932 15.8334 10.8332 15.8334H8.3332V3.33353C8.3332 2.62186 7.87988 1.98605 7.19825 1.74937L6.95153 1.66683H10.8332C11.2932 1.66683 11.6666 2.04097 11.6666 2.50026V5.00023C11.6666 5.46011 12.0391 5.83351 12.4999 5.83351C12.9607 5.83351 13.3331 5.46011 13.3331 5.00023V2.50026C13.3331 1.12195 12.2115 0.000283203 10.8332 0.000283203H1.87498C1.84326 0.000283203 1.8167 0.0144628 1.78588 0.0186033C1.74573 0.015244 1.70744 0.000244141 1.6667 0.000244141C0.747532 0.000283203 0 0.747698 0 1.66687V16.6667C0 17.3784 0.453316 18.0142 1.13495 18.2509L6.14994 19.9226C6.31994 19.975 6.489 20.0001 6.66661 20.0001C7.58579 20.0001 8.33316 19.2526 8.33316 18.3334V17.5001H10.8331C12.2114 17.5001 13.3331 16.3784 13.3331 15.0001V11.6667C13.3331 11.2069 12.9607 10.8335 12.4998 10.8335H12.4999Z" fill="#46BC8A"/>
<path d="M19.7557 7.74434L16.4223 4.4111C16.3058 4.29447 16.1573 4.21503 15.9956 4.18281C15.834 4.1506 15.6664 4.16706 15.5141 4.23012C15.2033 4.35938 14.9999 4.66348 14.9999 5.00023V7.50021H11.6666C11.2066 7.50021 10.8332 7.87344 10.8332 8.33348C10.8332 8.79351 11.2066 9.16675 11.6666 9.16675H14.9999V11.6667C14.9999 12.0035 15.2033 12.3076 15.5141 12.4368C15.6664 12.4999 15.834 12.5164 15.9956 12.4842C16.1573 12.452 16.3057 12.3726 16.4223 12.256L19.7557 8.92261C20.0815 8.59684 20.0815 8.07012 19.7557 7.74434Z" fill="#46BC8A"/>
</g>
<defs>
<clipPath id="clip0_21_4317">
<rect width="20" height="20" fill="white"/>
</clipPath>
</defs>
</svg>
