<svg width="25" height="24" viewBox="0 0 25 24" fill="none" xmlns="http://www.w3.org/2000/svg">
<g clip-path="url(#clip0_2635_638)">
<path d="M6.83047 9.24038H8.23672V8.0625H11.7969V16.071H10.5783V17.4773H14.4217V16.071H13.2031V8.0625H16.7633V9.24038H18.1695V6.65625H6.83047V9.24038Z" fill="#999999"/>
<path d="M22.8242 18.7971V5.20289C23.8066 4.79766 24.5 3.83006 24.5 2.70314C24.5 1.21261 23.2874 0 21.7969 0C20.6699 0 19.7023 0.693422 19.2971 1.67578H5.70289C5.29766 0.693422 4.33006 0 3.20314 0C1.71261 0 0.5 1.21261 0.5 2.70314C0.5 3.83006 1.19342 4.7977 2.17578 5.20294V18.7971C1.19342 19.2023 0.5 20.1699 0.5 21.2969C0.5 22.7874 1.71261 24 3.20314 24C4.33006 24 5.29766 23.3066 5.70289 22.3242H19.2971C19.7023 23.3066 20.6699 24 21.7969 24C23.2874 24 24.5 22.7874 24.5 21.2969C24.5 20.1699 23.8066 19.2023 22.8242 18.7971ZM19.1209 20.918H5.87914C5.7117 19.7302 4.7698 18.7882 3.58203 18.6209V5.37914C4.7698 5.21175 5.7117 4.2698 5.87914 3.08203H19.1209C19.2883 4.26984 20.2302 5.21175 21.418 5.37914V18.6208C20.2302 18.7882 19.2883 19.7302 19.1209 20.918ZM21.7969 1.40625C22.512 1.40625 23.0938 1.98802 23.0938 2.70314C23.0938 3.41827 22.512 4.00003 21.7969 4.00003C21.0818 4.00003 20.5 3.41827 20.5 2.70314C20.5 1.98802 21.0818 1.40625 21.7969 1.40625ZM3.20314 1.40625C3.91822 1.40625 4.49998 1.98802 4.49998 2.70314C4.49998 3.41827 3.91822 4.00003 3.20314 4.00003C2.48802 3.99998 1.90625 3.41822 1.90625 2.70314C1.90625 1.98802 2.48802 1.40625 3.20314 1.40625ZM3.20314 22.5938C2.48802 22.5938 1.90625 22.012 1.90625 21.2969C1.90625 20.5817 2.48802 20 3.20314 20C3.91822 20 4.49998 20.5817 4.49998 21.2969C4.49998 22.012 3.91822 22.5938 3.20314 22.5938ZM21.7969 22.5938C21.0818 22.5938 20.5 22.012 20.5 21.2969C20.5 20.5817 21.0818 20 21.7969 20C22.512 20 23.0938 20.5817 23.0938 21.2969C23.0938 22.012 22.512 22.5938 21.7969 22.5938Z" fill="#999999"/>
</g>
<defs>
<clipPath id="clip0_2635_638">
<rect width="24" height="24" fill="white" transform="translate(0.5)"/>
</clipPath>
</defs>
</svg>
